<svg width="35" height="35" viewBox="0 0 35 35" fill="none" xmlns="http://www.w3.org/2000/svg">
<path d="M29.629 6.06025C27.3982 5.03667 25.006 4.28255 22.5049 3.85063C22.4593 3.84229 22.4138 3.86312 22.3903 3.90479C22.0827 4.45198 21.7419 5.16583 21.5033 5.72691C18.8131 5.32417 16.1367 5.32417 13.5017 5.72691C13.263 5.15336 12.9099 4.45198 12.6008 3.90479C12.5774 3.86451 12.5319 3.84368 12.4863 3.85063C9.98654 4.28117 7.59436 5.03529 5.3622 6.06025C5.34287 6.06858 5.32631 6.08248 5.31532 6.10053C0.777863 12.8794 -0.465136 19.4916 0.144638 26.0219C0.147397 26.0538 0.165331 26.0844 0.190164 26.1038C3.18385 28.3023 6.08374 29.637 8.92978 30.5217C8.97533 30.5356 9.02359 30.5189 9.05258 30.4814C9.72581 29.562 10.3259 28.5926 10.8405 27.5732C10.8709 27.5135 10.8419 27.4426 10.7798 27.419C9.8279 27.0579 8.9215 26.6177 8.04961 26.1177C7.98064 26.0774 7.97512 25.9788 8.03856 25.9316C8.22204 25.7941 8.40557 25.651 8.58077 25.5066C8.61246 25.4802 8.65663 25.4747 8.6939 25.4913C14.4219 28.1065 20.6231 28.1065 26.2835 25.4913C26.3207 25.4733 26.3649 25.4788 26.398 25.5052C26.5732 25.6497 26.7567 25.7941 26.9416 25.9316C27.005 25.9788 27.0009 26.0774 26.9319 26.1177C26.06 26.6274 25.1536 27.0579 24.2003 27.4176C24.1383 27.4413 24.1107 27.5135 24.141 27.5732C24.6666 28.5912 25.2667 29.5606 25.9276 30.48C25.9552 30.5189 26.0048 30.5356 26.0504 30.5217C28.9102 29.637 31.8101 28.3023 34.8038 26.1038C34.83 26.0844 34.8465 26.0552 34.8493 26.0233C35.5791 18.4736 33.627 11.9156 29.6745 6.10191C29.6648 6.08248 29.6483 6.06858 29.629 6.06025ZM11.6959 22.0456C9.97135 22.0456 8.5504 20.4624 8.5504 18.518C8.5504 16.5737 9.9438 14.9904 11.6959 14.9904C13.4617 14.9904 14.8689 16.5876 14.8413 18.518C14.8413 20.4624 13.4479 22.0456 11.6959 22.0456ZM23.3257 22.0456C21.6012 22.0456 20.1803 20.4624 20.1803 18.518C20.1803 16.5737 21.5736 14.9904 23.3257 14.9904C25.0915 14.9904 26.4987 16.5876 26.4711 18.518C26.4711 20.4624 25.0915 22.0456 23.3257 22.0456Z" fill="white"/>
</svg>
