<svg width="12" height="12" viewBox="0 0 12 12" fill="none" xmlns="http://www.w3.org/2000/svg">
<path d="M0.765632 1.034C0.765811 0.75981 0.879775 0.4969 1.08249 0.303019C1.28521 0.109138 1.5601 0.000142217 1.84679 -2.88358e-05L10.5164 -2.79294e-05C10.8031 0.000142737 11.078 0.109139 11.2807 0.30302C11.4834 0.4969 11.5974 0.75981 11.5976 1.034L11.5976 9.32572C11.5875 9.59366 11.4693 9.84744 11.2676 10.0337C11.066 10.22 10.7967 10.3243 10.5164 10.3246C10.2361 10.3243 9.96681 10.22 9.76519 10.0337C9.56358 9.84744 9.44531 9.59366 9.43526 9.32572L9.43526 3.53127L1.84679 10.789C1.6439 10.983 1.36874 11.092 1.08182 11.092C0.794901 11.092 0.519734 10.983 0.316851 10.789C0.11397 10.5949 -7.80904e-06 10.3318 -7.46444e-06 10.0573C-7.46444e-06 9.78293 0.11397 9.51976 0.316852 9.32572L7.90533 2.06803L1.84679 2.06802C1.5601 2.06785 1.28521 1.95886 1.08249 1.76498C0.879774 1.5711 0.76581 1.30819 0.765632 1.034Z" fill="white"/>
</svg>
